<?xml version="1.0" encoding="UTF-8"?>
<svg width="24px" height="24px" viewBox="0 0 24 24" version="1.1" xmlns="http://www.w3.org/2000/svg" xmlns:xlink="http://www.w3.org/1999/xlink">
    <!-- Generator: Sketch 52.4 (67378) - http://www.bohemiancoding.com/sketch -->
    <title>delete </title>
    <desc>Created with Sketch.</desc>
    <g id="Page-1" stroke="none" stroke-width="1" fill="none" fill-rule="evenodd">
        <g id="资源维护-集客业务及测试分类" transform="translate(-556.000000, -137.000000)">
            <g id="左侧" transform="translate(261.000000, 78.000000)">
                <g id="Group-3-Copy-2" transform="translate(10.000000, 54.000000)">
                    <g id="delete-copy" transform="translate(285.000000, 5.000000)">
                        <rect id="Rectangle-48-Copy-13" x="4" y="3" width="16" height="16"></rect>
                        <g id="delete" transform="translate(4.984375, 4.015625)" fill="#1890FF" fill-rule="nonzero">
                            <path d="M1.86092879,13.8572667 C1.82305897,13.8255206 1.7845129,13.7842508 1.74664308,13.742981 C1.78857037,13.7842508 1.82305897,13.8255206 1.86092879,13.8572667 Z M1.70986678,13.7718174 C1.67075567,13.7350542 1.63215249,13.698291 1.59558106,13.6575317 C1.63164454,13.698291 1.67075567,13.7350542 1.70986678,13.7718174 Z M13.8654785,2.16308594 C13.7592773,2.05688477 13.6048584,1.99768066 13.4550171,1.99768066 L10.5741577,1.99768066 L10.5741577,1.10015869 C10.5741577,0.493164062 10.0809937,0 9.47399903,0 L4.55639648,0 C3.94940186,0 3.4562378,0.493164062 3.4562378,1.10015869 L3.4562378,1.99768066 L0.560729984,1.99768067 C0.253417969,1.99768067 0.001953125,2.24731447 0.001953125,2.55645753 C0.001953125,2.86560059 0.251586922,3.11523439 0.560729984,3.11523439 L1.05389405,3.11523439 L1.05389405,12.8396607 C1.05389405,13.4466553 1.54705811,13.9398193 2.15405273,13.9398193 L12.0332031,13.9398193 C12.6401977,13.9398193 13.1333618,13.4466553 13.1333618,12.8396607 L13.1333618,3.11523437 L13.4547119,3.11523437 C13.7620239,3.11523437 14.0290527,2.86560058 14.0290527,2.55645752 C14.0293579,2.40814209 13.9716797,2.26928711 13.8654785,2.16308594 Z M4.55456544,1.10351562 L9.46911622,1.10351562 L9.46911622,2.00714111 L4.55456544,2.00714111 L4.55456544,1.10351562 Z M12.0316772,12.8381348 L2.15405273,12.8381348 L2.15405273,3.11523438 L3.57739258,3.11523438 L12.0313721,3.11523438 L12.0313721,12.8381348 L12.0316772,12.8381348 Z M7.00787353,4.98779297 C6.69720458,4.98779297 6.44604492,5.23895264 6.44604492,5.54962158 L6.44604492,10.7623291 C6.44604492,11.072998 6.69720459,11.3241577 7.00787353,11.3241577 C7.31854247,11.3241577 7.56970214,11.072998 7.56970214,10.7623291 L7.56970216,5.54962158 C7.56970216,5.23925781 7.31854248,4.98779297 7.00787353,4.98779297 Z M3.96466064,4.98779297 C3.65399169,4.98779297 3.40283203,5.23895264 3.40283203,5.54962158 L3.40283203,10.7623291 C3.40283203,11.072998 3.6539917,11.3241577 3.96466064,11.3241577 C4.27532958,11.3241577 4.52648925,11.072998 4.52648925,10.7623291 L4.52648927,5.54962158 C4.52648927,5.23925781 4.27502442,4.98779297 3.96466064,4.98779297 Z M10.0199585,4.98779297 C9.70928955,4.98779297 9.45812989,5.23895264 9.45812989,5.54962158 L9.45812989,10.7623291 C9.45812989,11.072998 9.70928956,11.3241577 10.0199585,11.3241577 C10.3306274,11.3241577 10.5817871,11.072998 10.5817871,10.7623291 L10.5817871,5.54962158 C10.5817871,5.23925781 10.3306274,4.98779297 10.0199585,4.98779297 Z" id="Shape"></path>
                        </g>
                    </g>
                </g>
            </g>
        </g>
    </g>
</svg>